HIERARCHY
ROOT hip
{
	OFFSET 0.000000 0.000000 0.000000
	CHANNELS 6 Xposition Yposition Zposition Xrotation Zrotation Yrotation 
	JOINT abdomen
	{
		OFFSET 0.000000 3.422050 0.000000
		CHANNELS 3 Xrotation Zrotation Yrotation 
		JOINT chest
		{
			OFFSET 0.000000 8.486693 -0.6844110
			CHANNELS 3 Xrotation Zrotation Yrotation 
			JOINT neck
			{
				OFFSET 0.000000 10.26616 -0.2737640
				CHANNELS 3 Xrotation Zrotation Yrotation 
				JOINT head
				{
					OFFSET 0.000000 3.148285 0.000000
					CHANNELS 3 Xrotation Zrotation Yrotation 
					End Site
					{
						OFFSET 0.000000 3.148289 0.000000
					}
				}
			}
			JOINT lCollar
			{
				OFFSET 3.422053 6.707223 -0.8212930
				CHANNELS 3 Yrotation Zrotation Xrotation 
				JOINT lShldr
				{
					OFFSET 3.285171 0.000000 0.000000
					CHANNELS 3 Zrotation Yrotation Xrotation 
					JOINT lForeArm
					{
						OFFSET 10.12928 0.000000 0.000000
						CHANNELS 3 Yrotation Zrotation Xrotation 
						JOINT lHand
						{
							OFFSET 8.486692 0.000000 0.000000
							CHANNELS 3 Zrotation Yrotation Xrotation 
							End Site
							{
								OFFSET 4.106464 0.000000 0.000000
							}
						}
					}
				}
			}
			JOINT rCollar
			{
				OFFSET -3.558935 6.707223 -0.8212930
				CHANNELS 3 Yrotation Zrotation Xrotation 
				JOINT rShldr
				{
					OFFSET -3.148289 0.000000 0.000000
					CHANNELS 3 Zrotation Yrotation Xrotation 
					JOINT rForeArm
					{
						OFFSET -10.26616 0.000000 0.000000
						CHANNELS 3 Yrotation Zrotation Xrotation 
						JOINT rHand
						{
							OFFSET -8.349810 0.000000 0.000000
							CHANNELS 3 Zrotation Yrotation Xrotation 
							End Site
							{
								OFFSET -4.106464 0.000000 0.000000
							}
						}
					}
				}
			}
		}
	}
	JOINT lThigh
	{
		OFFSET 5.338403 -1.642589 1.368821
		CHANNELS 3 Xrotation Zrotation Yrotation 
		JOINT lShin
		{
			OFFSET -2.053232 -20.12167 0.000000
			CHANNELS 3 Xrotation Zrotation Yrotation 
			JOINT lFoot
			{
				OFFSET 0.000000 -19.30038 -1.231939
				CHANNELS 3 Xrotation Yrotation Zrotation 
				End Site
				{
					OFFSET 0.000000 -2.463878 4.653993
				}
			}
		}
	}
	JOINT rThigh
	{
		OFFSET -5.338403 -1.642589 1.368821
		CHANNELS 3 Xrotation Zrotation Yrotation 
		JOINT rShin
		{
			OFFSET 2.053232 -20.12167 0.000000
			CHANNELS 3 Xrotation Zrotation Yrotation 
			JOINT rFoot
			{
				OFFSET 0.000000 -19.30038 -1.231939
				CHANNELS 3 Xrotation Yrotation Zrotation 
				End Site
				{
					OFFSET 0.000000 -2.463878 4.653993
				}
			}
		}
	}
}
MOTION
Frames:	19
Frame Time:	0.03333333
0.000000 43.52852 0.000000 0.000000 0.000000 0.000000 0.000000 0.000000 0.000000 0.000000 0.000000 0.000000 0.000000 0.000000 0.000000 0.000000 0.000000 0.000000 0.000000 0.000000 0.000000 0.000000 0.000000 0.000000 0.000000 0.000000 0.000000 0.000000 0.000000 0.000000 0.000000 0.000000 0.000000 0.000000 0.000000 0.000000 0.000000 0.000000 0.000000 0.000000 0.000000 0.000000 0.000000 0.000000 0.000000 0.000000 0.000000 0.000000 0.000000 0.000000 0.000000 0.000000 0.000000 0.000000 0.000000 0.000000 0.000000 0.000000 0.000000 0.000000 
0.000000 43.52852 0.000000 1.000000 0.000000 0.000000 1.000000 0.000000 0.000000 1.000000 0.000000 0.000000 1.000000 0.000000 0.000000 1.000000 0.000000 0.000000 0.000000 0.000000 1.000000 -74.00000 32.00000 0.000000 -121.0000 0.000000 0.000000 0.000000 0.000000 0.000000 0.000000 0.000000 1.000000 74.00000 -32.00000 0.000000 121.0000 0.000000 0.000000 0.000000 0.000000 0.000000 -11.00000 0.000000 0.000000 25.00000 0.000000 0.000000 -14.00000 0.000000 0.000000 -11.00000 0.000000 0.000000 25.00000 0.000000 0.000000 -14.00000 0.000000 0.000000 
1.833333 43.52852 0.000000 1.000000 0.000000 0.000000 1.000000 0.000000 0.000000 1.000000 0.000000 0.000000 1.000000 0.000000 0.000000 1.000000 0.000000 0.000000 0.000000 0.000000 1.000000 -74.00000 14.16667 0.000000 -115.8333 2.333333 0.000000 0.000000 0.000000 -15.00000 0.000000 0.000000 1.000000 74.00000 -14.16667 0.000000 115.8333 -2.333333 0.000000 0.000000 0.000000 -15.00000 -11.00000 3.333333 2.166667 25.00000 0.000000 0.000000 -14.00000 0.000000 0.000000 -11.00000 -3.333333 -2.166667 25.00000 0.000000 0.000000 -14.00000 0.000000 0.000000 
3.666667 43.52852 0.000000 1.000000 0.000000 0.000000 1.000000 0.000000 0.000000 1.000000 0.000000 0.000000 1.000000 0.000000 0.000000 1.000000 0.000000 0.000000 0.000000 0.000000 1.000000 -74.00000 -3.666667 0.000000 -110.6667 4.666667 0.000000 0.000000 0.000000 -30.00000 0.000000 0.000000 1.000000 74.00000 3.666667 0.000000 110.6667 -4.666667 0.000000 0.000000 0.000000 -30.00000 -11.00000 6.666667 4.333333 25.00000 0.000000 0.000000 -14.00000 0.000000 0.000000 -11.00000 -6.666667 -4.333333 25.00000 0.000000 0.000000 -14.00000 0.000000 0.000000 
5.500000 43.52852 0.000000 1.000000 0.000000 0.000000 1.000000 0.000000 0.000000 1.000000 0.000000 0.000000 1.000000 0.000000 0.000000 1.000000 0.000000 0.000000 0.000000 0.000000 1.000000 -74.00000 -21.50000 0.000000 -105.5000 7.000000 0.000000 0.000000 0.000000 -45.00000 0.000000 0.000000 1.000000 74.00000 21.50000 0.000000 105.5000 -7.000000 0.000000 0.000000 0.000000 -45.00000 -11.00000 10.00000 6.500000 25.00000 0.000000 0.000000 -14.00000 0.000000 0.000000 -11.00000 -10.00000 -6.500000 25.00000 0.000000 0.000000 -14.00000 0.000000 0.000000 
7.333333 43.52852 0.000000 1.000000 0.000000 0.000000 1.000000 0.000000 0.000000 1.000000 0.000000 0.000000 1.000000 0.000000 0.000000 1.000000 0.000000 0.000000 0.000000 0.000000 1.000000 -74.00000 -39.33333 0.000000 -100.3333 9.333333 0.000000 0.000000 0.000000 -60.00000 0.000000 0.000000 1.000000 74.00000 39.33333 0.000000 100.3333 -9.333333 0.000000 0.000000 0.000000 -60.00000 -11.00000 13.33333 8.666667 25.00000 0.000000 0.000000 -14.00000 0.000000 0.000000 -11.00000 -13.33333 -8.666667 25.00000 0.000000 0.000000 -14.00000 0.000000 0.000000 
9.166667 43.52852 0.000000 1.000000 0.000000 0.000000 1.000000 0.000000 0.000000 1.000000 0.000000 0.000000 1.000000 0.000000 0.000000 1.000000 0.000000 0.000000 0.000000 0.000000 1.000000 -74.00000 -57.16667 0.000000 -95.16666 11.66667 0.000000 0.000000 0.000000 -75.00000 0.000000 0.000000 1.000000 74.00000 57.16667 0.000000 95.16666 -11.66667 0.000000 0.000000 0.000000 -75.00000 -11.00000 16.66667 10.83333 25.00000 0.000000 0.000000 -14.00000 0.000000 0.000000 -11.00000 -16.66667 -10.83333 25.00000 0.000000 0.000000 -14.00000 0.000000 0.000000 
11.00000 43.52852 0.000000 1.000000 0.000000 0.000000 1.000000 0.000000 0.000000 1.000000 0.000000 0.000000 1.000000 0.000000 0.000000 1.000000 0.000000 0.000000 0.000000 0.000000 1.000000 -74.00000 -75.00000 0.000000 -90.00000 14.00000 0.000000 0.000000 0.000000 -90.00000 0.000000 0.000000 1.000000 74.00000 75.00000 0.000000 90.00000 -14.00000 0.000000 0.000000 0.000000 -90.00000 -11.00000 20.00000 13.00000 25.00000 0.000000 0.000000 -14.00000 0.000000 0.000000 -11.00000 -20.00000 -13.00000 25.00000 0.000000 0.000000 -14.00000 0.000000 0.000000 
13.00000 43.52852 0.000000 1.000000 0.000000 0.000000 1.000000 0.000000 0.000000 1.000000 0.000000 0.000000 1.000000 0.000000 0.000000 1.000000 0.000000 0.000000 0.000000 0.000000 1.000000 -74.00000 -59.71429 0.000000 -94.42857 12.00000 0.000000 0.000000 0.000000 -77.14286 0.000000 0.000000 1.000000 74.00000 59.71429 0.000000 94.42857 -12.00000 0.000000 0.000000 0.000000 -77.14286 -11.00000 17.14286 11.14286 25.00000 0.000000 0.000000 -14.00000 0.000000 0.000000 -11.00000 -17.14286 -11.14286 33.85714 0.000000 0.000000 -14.00000 0.000000 0.000000 
15.00000 43.52852 0.000000 1.000000 0.000000 0.000000 1.000000 0.000000 0.000000 1.000000 0.000000 0.000000 1.000000 0.000000 0.000000 1.000000 0.000000 0.000000 0.000000 0.000000 1.000000 -74.00000 -44.42857 0.000000 -98.85714 10.00000 0.000000 0.000000 0.000000 -64.28571 0.000000 0.000000 1.000000 74.00000 44.42857 0.000000 98.85714 -10.00000 0.000000 0.000000 0.000000 -64.28571 -11.00000 14.28571 9.285714 25.00000 0.000000 0.000000 -14.00000 0.000000 0.000000 -11.00000 -14.28571 -9.285714 42.71429 0.000000 0.000000 -14.00000 0.000000 0.000000 
17.00000 43.52852 0.000000 1.000000 0.000000 0.000000 1.000000 0.000000 0.000000 1.000000 0.000000 0.000000 1.000000 0.000000 0.000000 1.000000 0.000000 0.000000 0.000000 0.000000 1.000000 -74.00000 -29.14286 0.000000 -103.2857 8.000000 0.000000 0.000000 0.000000 -51.42857 0.000000 0.000000 1.000000 74.00000 29.14286 0.000000 103.2857 -8.000000 0.000000 0.000000 0.000000 -51.42857 -11.00000 11.42857 7.428571 25.00000 0.000000 0.000000 -14.00000 0.000000 0.000000 -11.00000 -11.42857 -7.428571 51.57143 0.000000 0.000000 -14.00000 0.000000 0.000000 
19.00000 43.52852 0.000000 1.000000 0.000000 0.000000 1.000000 0.000000 0.000000 1.000000 0.000000 0.000000 1.000000 0.000000 0.000000 1.000000 0.000000 0.000000 0.000000 0.000000 1.000000 -74.00000 -13.85714 0.000000 -107.7143 6.000000 0.000000 0.000000 0.000000 -38.57143 0.000000 0.000000 1.000000 74.00000 13.85714 0.000000 107.7143 -6.000000 0.000000 0.000000 0.000000 -38.57143 -11.00000 8.571428 5.571429 25.00000 0.000000 0.000000 -14.00000 0.000000 0.000000 -11.00000 -8.571428 -5.571429 60.42857 0.000000 0.000000 -14.00000 0.000000 0.000000 
21.00000 43.52852 0.000000 1.000000 0.000000 0.000000 1.000000 0.000000 0.000000 1.000000 0.000000 0.000000 1.000000 0.000000 0.000000 1.000000 0.000000 0.000000 0.000000 0.000000 1.000000 -74.00000 1.428571 0.000000 -112.1429 4.000000 0.000000 0.000000 0.000000 -25.71428 0.000000 0.000000 1.000000 74.00000 -1.428571 0.000000 112.1429 -4.000000 0.000000 0.000000 0.000000 -25.71428 -11.00000 5.714286 3.714286 25.00000 0.000000 0.000000 -14.00000 0.000000 0.000000 -11.00000 -5.714286 -3.714286 69.28571 0.000000 0.000000 -14.00000 0.000000 0.000000 
23.00000 43.52852 0.000000 1.000000 0.000000 0.000000 1.000000 0.000000 0.000000 1.000000 0.000000 0.000000 1.000000 0.000000 0.000000 1.000000 0.000000 0.000000 0.000000 0.000000 1.000000 -74.00000 16.71428 0.000000 -116.5714 2.000000 0.000000 0.000000 0.000000 -12.85714 0.000000 0.000000 1.000000 74.00000 -16.71428 0.000000 116.5714 -2.000000 0.000000 0.000000 0.000000 -12.85714 -11.00000 2.857143 1.857143 25.00000 0.000000 0.000000 -14.00000 0.000000 0.000000 -11.00000 -2.857143 -1.857143 78.14286 0.000000 0.000000 -14.00000 0.000000 0.000000 
25.00000 43.52852 0.000000 1.000000 0.000000 0.000000 1.000000 0.000000 0.000000 1.000000 0.000000 0.000000 1.000000 0.000000 0.000000 1.000000 0.000000 0.000000 0.000000 0.000000 1.000000 -74.00000 32.00000 0.000000 -121.0000 0.000000 0.000000 0.000000 0.000000 0.000000 0.000000 0.000000 1.000000 74.00000 -32.00000 0.000000 121.0000 0.000000 0.000000 0.000000 0.000000 0.000000 -11.00000 0.000000 0.000000 25.00000 0.000000 0.000000 -14.00000 0.000000 0.000000 -11.00000 0.000000 0.000000 87.00000 0.000000 0.000000 -14.00000 0.000000 0.000000 
23.44444 43.52852 0.000000 1.000000 0.000000 0.000000 1.000000 0.000000 0.000000 1.000000 0.000000 0.000000 1.000000 0.000000 0.000000 1.000000 0.000000 0.000000 0.000000 0.000000 1.000000 -74.00000 20.11111 0.000000 -117.5556 1.555556 0.000000 0.000000 0.000000 -10.00000 0.000000 0.000000 1.000000 74.00000 -20.11111 0.000000 117.5556 -1.555556 0.000000 0.000000 0.000000 -10.00000 -11.00000 2.222222 1.444444 25.00000 0.000000 0.000000 -14.00000 0.000000 0.000000 -11.00000 -2.222222 -1.444444 80.11111 0.000000 0.000000 -14.00000 0.000000 0.000000 
21.88889 43.52852 0.000000 1.000000 0.000000 0.000000 1.000000 0.000000 0.000000 1.000000 0.000000 0.000000 1.000000 0.000000 0.000000 1.000000 0.000000 0.000000 0.000000 0.000000 1.000000 -74.00000 8.222222 0.000000 -114.1111 3.111111 0.000000 0.000000 0.000000 -20.00000 0.000000 0.000000 1.000000 74.00000 -8.222222 0.000000 114.1111 -3.111111 0.000000 0.000000 0.000000 -20.00000 -11.00000 4.444445 2.888889 25.00000 0.000000 0.000000 -14.00000 0.000000 0.000000 -11.00000 -4.444445 -2.888889 73.22222 0.000000 0.000000 -14.00000 0.000000 0.000000 
20.33333 43.52852 0.000000 1.000000 0.000000 0.000000 1.000000 0.000000 0.000000 1.000000 0.000000 0.000000 1.000000 0.000000 0.000000 1.000000 0.000000 0.000000 0.000000 0.000000 1.000000 -74.00000 -3.666667 0.000000 -110.6667 4.666667 0.000000 0.000000 0.000000 -30.00000 0.000000 0.000000 1.000000 74.00000 3.666667 0.000000 110.6667 -4.666667 0.000000 0.000000 0.000000 -30.00000 -11.00000 6.666667 4.333333 25.00000 0.000000 0.000000 -14.00000 0.000000 0.000000 -11.00000 -6.666667 -4.333333 66.33334 0.000000 0.000000 -14.00000 0.000000 0.000000 
18.77778 43.52852 0.000000 1.000000 0.000000 0.000000 1.000000 0.000000 0.000000 1.000000 0.000000 0.000000 1.000000 0.000000 0.000000 1.000000 0.000000 0.000000 0.000000 0.000000 1.000000 -74.00000 -15.55556 0.000000 -107.2222 6.222222 0.000000 0.000000 0.000000 -40.00000 0.000000 0.000000 1.000000 74.00000 15.55556 0.000000 107.2222 -6.222222 0.000000 0.000000 0.000000 -40.00000 -11.00000 8.888889 5.777778 25.00000 0.000000 0.000000 -14.00000 0.000000 0.000000 -11.00000 -8.888889 -5.777778 59.44444 0.000000 0.000000 -14.00000 0.000000 0.000000 
